<svg version="1.1" xmlns="http://www.w3.org/2000/svg" xmlns:xlink="http://www.w3.org/1999/xlink" x="0px" y="0px" viewBox="0 0 64 64">
<polygon fill="#E44D26" points="13.456,58.859 9.329,12.578 54.671,12.578 50.54,58.853 31.972,64 "/>
<polygon fill="#F16529" points="32,60.065 47.004,55.906 50.533,16.362 32,16.362 "/>
<polygon fill="#EBEBEB" points="32,33.527 24.489,33.527 23.97,27.714 32,27.714 32,22.038 31.98,22.038 17.767,22.038
	17.902,23.561 19.297,39.203 32,39.203 "/>
<polygon fill="#EBEBEB" points="32,48.27 31.975,48.275 25.653,46.568 25.249,42.041 22.177,42.041 19.551,42.041 20.346,50.954
	31.974,54.182 32,54.175 "/>
<path d="M13.548,0h2.885v2.85h2.639V0h2.885v8.63h-2.885v-2.89h-2.639v2.89h-2.885V0L13.548,0z"/>
<path d="M25.749,2.862H23.21V0h7.965v2.862h-2.541V8.63H25.75L25.749,2.862L25.749,2.862z"/>
<path d="M32.439,0h3.008l1.85,3.033L39.146,0h3.009v8.63h-2.873V4.353l-1.984,3.069h-0.049l-1.986-3.069V8.63h-2.823V0z"/>
<path d="M43.59,0h2.886v5.778h4.057V8.63H43.59V0z"/>
<polygon fill="#FFFFFF" points="31.98,33.527 31.98,39.203 38.971,39.203 38.311,46.564 31.98,48.273 31.98,54.18 43.617,50.954
	43.703,49.995 45.036,35.051 45.175,33.527 43.645,33.527 "/>
<polygon fill="#FFFFFF" points="31.98,22.038 31.98,25.563 31.98,27.701 31.98,27.714 45.674,27.714 45.674,27.714 45.691,27.714
	45.805,26.438 46.064,23.561 46.199,22.038 "/>
</svg>



