<svg version="1.1" xmlns="http://www.w3.org/2000/svg" x="0px" y="0px" viewBox="0 0 455.7 455.7"><rect x="27.9" y="27.9" fill="white" width="400" height="400"/><path fill="rgb(80, 171, 241)" d="M80.9,324.4c26.6,16.9,58.2,26.7,92.1,26.7c95.1,0,172.2-77.1,172.2-172.2c0-2.4-0.1-4.7-0.2-7.1 c3.4-2.7,24.8-19.7,29.9-30.7c0,0-17.3,7.2-34.1,8.9h-0.1c0,0,0,0,0.1-0.1c1.6-1.1,23.3-15.9,26.3-33.5c0,0-12.2,6.5-29.3,12.2 c-2.8,1-5.8,1.8-8.9,2.7c-11.1-11.7-26.9-19-44.2-19c-33.4,0-60.4,27-60.4,60.4c0,4.7,0.5,9.3,1.6,13.7c-4.7-0.2-75.7-4.2-124-62.7 c0,0-28.9,39.4,17.2,80c0,0-14-0.5-26.1-7.8c0,0-4.5,47.8,47.8,60c0,0-10.3,3.9-26.7,1.1c0,0,9.1,38.6,55.6,42.2 C169.5,299,132.9,332.2,80.9,324.4L80.9,324.4z"/></svg>
